<svg width="59" height="50" viewBox="0 0 59 50" fill="none" xmlns="http://www.w3.org/2000/svg">
<g filter="url(#filter0_d_17_27)">
<rect x="33.3076" width="24" height="24" rx="12" fill="white" shape-rendering="crispEdges"/>
<path d="M45.375 17.1392C44.6259 17.1392 43.9879 16.9354 43.4609 16.5277C42.9339 16.1167 42.5313 15.5218 42.2528 14.7429C41.9744 13.9607 41.8352 13.0161 41.8352 11.9091C41.8352 10.8087 41.9744 9.86908 42.2528 9.0902C42.5346 8.308 42.9389 7.71141 43.4659 7.30043C43.9962 6.88613 44.6326 6.67898 45.375 6.67898C46.1174 6.67898 46.7521 6.88613 47.2791 7.30043C47.8094 7.71141 48.2138 8.308 48.4922 9.0902C48.7739 9.86908 48.9148 10.8087 48.9148 11.9091C48.9148 13.0161 48.7756 13.9607 48.4972 14.7429C48.2188 15.5218 47.8161 16.1167 47.2891 16.5277C46.7621 16.9354 46.1241 17.1392 45.375 17.1392ZM45.375 16.0455C46.1174 16.0455 46.6941 15.6875 47.1051 14.9716C47.5161 14.2557 47.7216 13.2348 47.7216 11.9091C47.7216 11.0275 47.6271 10.2768 47.4382 9.65696C47.2526 9.03717 46.9841 8.56487 46.6328 8.24006C46.2848 7.91525 45.8655 7.75284 45.375 7.75284C44.6392 7.75284 44.0642 8.11577 43.6499 8.84162C43.2356 9.56416 43.0284 10.5866 43.0284 11.9091C43.0284 12.7907 43.1212 13.5398 43.3068 14.1562C43.4924 14.7727 43.7592 15.2417 44.1072 15.5632C44.4586 15.8847 44.8812 16.0455 45.375 16.0455Z" fill="black"/>
<rect x="34.3076" y="1" width="22" height="22" rx="11" stroke="black" stroke-width="2" shape-rendering="crispEdges"/>
</g>
<path d="M8.71157 26.6933L8.50701 25.875C8.20339 24.6606 9.07745 23.4689 10.327 23.3936L44.1103 21.3584C45.2601 21.2892 46.2306 22.203 46.2306 23.3548V27.0769C46.2306 28.1814 45.3351 29.0769 44.2306 29.0769H43.9229L40.9761 46.3365C40.812 47.2973 39.9793 48 39.0046 48H10.2368C9.01699 48 8.08128 46.9173 8.25791 45.7104L10.6921 29.0769L9.23764 27.6224C8.98133 27.3661 8.79949 27.045 8.71157 26.6933Z" fill="white"/>
<path d="M10.6921 29.0769L9.23764 27.6224C8.98133 27.3661 8.79949 27.045 8.71157 26.6933L8.50701 25.875C8.20339 24.6606 9.07745 23.4689 10.327 23.3936L44.1103 21.3584C45.2601 21.2892 46.2306 22.203 46.2306 23.3548V27.0769C46.2306 28.1814 45.3351 29.0769 44.2306 29.0769H43.9229M10.6921 29.0769L8.25791 45.7104C8.08128 46.9173 9.01699 48 10.2368 48H39.0046C39.9793 48 40.812 47.2973 40.9761 46.3365L43.9229 29.0769M10.6921 29.0769H43.9229" stroke="black" stroke-width="3"/>
<path d="M1 26.1538V22.3076C1 21.203 1.89543 20.3076 3 20.3076H43.3077C44.4123 20.3076 45.3077 21.203 45.3077 22.3076V26.1538C45.3077 27.2583 44.4123 28.1538 43.3077 28.1538H43L40.0532 45.4135C39.8892 46.3742 39.0565 47.0769 38.0818 47.0769H8.68748C7.71279 47.0769 6.88004 46.3742 6.71601 45.4134L3.76923 28.1538H3C1.89543 28.1538 1 27.2583 1 26.1538Z" fill="white"/>
<path d="M3.76923 28.1538H3C1.89543 28.1538 1 27.2583 1 26.1538V22.3076C1 21.203 1.89543 20.3076 3 20.3076H43.3077C44.4123 20.3076 45.3077 21.203 45.3077 22.3076V26.1538C45.3077 27.2583 44.4123 28.1538 43.3077 28.1538H43M3.76923 28.1538L6.71601 45.4134C6.88004 46.3742 7.71279 47.0769 8.68748 47.0769H38.0818C39.0565 47.0769 39.8892 46.3742 40.0532 45.4134L43 28.1538M3.76923 28.1538H43" stroke="black"/>
<path d="M22.1301 21.0445L12.8353 11.1803C12.0778 10.3764 12.1154 9.11063 12.9193 8.35312L13.1525 8.13338C13.9564 7.37587 15.2222 7.41349 15.9797 8.21739L25.2745 18.0816C26.6814 18.7346 28.9292 20.5741 26.6652 22.7074C24.4013 24.8407 22.6985 22.4876 22.1301 21.0445Z" fill="white" stroke="black"/>
<rect x="7.81143" y="31.7346" width="30.6846" height="2.06923" rx="1.03462" fill="white" stroke="black" stroke-width="0.7"/>
<rect x="7.81143" y="35.4269" width="30.6846" height="2.06923" rx="1.03462" fill="white" stroke="black" stroke-width="0.7"/>
<rect x="7.81143" y="39.1193" width="30.6846" height="2.06923" rx="1.03462" fill="white" stroke="black" stroke-width="0.7"/>
<defs>
<filter id="filter0_d_17_27" x="33.3076" y="0" width="25" height="25" filterUnits="userSpaceOnUse" color-interpolation-filters="sRGB">
<feFlood flood-opacity="0" result="BackgroundImageFix"/>
<feColorMatrix in="SourceAlpha" type="matrix" values="0 0 0 0 0 0 0 0 0 0 0 0 0 0 0 0 0 0 127 0" result="hardAlpha"/>
<feOffset dx="1" dy="1"/>
<feComposite in2="hardAlpha" operator="out"/>
<feColorMatrix type="matrix" values="0 0 0 0 0 0 0 0 0 0 0 0 0 0 0 0 0 0 1 0"/>
<feBlend mode="normal" in2="BackgroundImageFix" result="effect1_dropShadow_17_27"/>
<feBlend mode="normal" in="SourceGraphic" in2="effect1_dropShadow_17_27" result="shape"/>
</filter>
</defs>
</svg>
