<svg width="94" height="47" viewBox="0 0 94 47" fill="none" xmlns="http://www.w3.org/2000/svg">
<rect x="3" y="3" width="87.73" height="41" rx="7" fill="white"/>
<path d="M21.331 31C21.135 31 21.037 30.895 21.037 30.685V15.712C21.037 15.516 21.121 15.418 21.289 15.418H23.305C23.417 15.418 23.494 15.432 23.536 15.46C23.592 15.488 23.634 15.551 23.662 15.649L28.324 27.682C28.38 27.808 28.436 27.871 28.492 27.871C28.548 27.857 28.604 27.787 28.66 27.661L33.322 15.691C33.378 15.509 33.483 15.418 33.637 15.418H35.758C35.912 15.418 35.989 15.509 35.989 15.691V30.685C35.989 30.895 35.884 31 35.674 31H34.288C34.176 31 34.092 30.979 34.036 30.937C33.994 30.895 33.973 30.825 33.973 30.727V18.715C33.973 18.645 33.959 18.617 33.931 18.631C33.903 18.631 33.882 18.659 33.868 18.715L29.248 30.727C29.178 30.909 29.045 31 28.849 31H27.841C27.617 31 27.477 30.916 27.421 30.748L22.864 18.841C22.836 18.771 22.808 18.743 22.78 18.757C22.766 18.757 22.759 18.785 22.759 18.841V30.727C22.759 30.825 22.738 30.895 22.696 30.937C22.654 30.979 22.577 31 22.465 31H21.331ZM40.8243 26.128C40.8243 26.814 40.9853 27.444 41.3073 28.018C41.6433 28.578 42.0843 29.026 42.6303 29.362C43.1903 29.698 43.8133 29.866 44.4993 29.866C45.1993 29.866 45.8223 29.726 46.3683 29.446C46.9143 29.152 47.3833 28.711 47.7753 28.123C47.8313 28.067 47.8733 28.039 47.9013 28.039C47.9433 28.025 47.9993 28.032 48.0693 28.06L48.9513 28.501C49.0773 28.571 49.0913 28.669 48.9933 28.795C48.6153 29.355 48.1953 29.817 47.7333 30.181C47.2853 30.531 46.7813 30.79 46.2213 30.958C45.6613 31.126 45.0313 31.21 44.3313 31.21C43.2953 31.21 42.3783 30.972 41.5803 30.496C40.7823 30.02 40.1523 29.355 39.6903 28.501C39.2283 27.647 38.9973 26.66 38.9973 25.54C38.9973 24.322 39.2283 23.279 39.6903 22.411C40.1663 21.529 40.8033 20.85 41.6013 20.374C42.4133 19.898 43.3163 19.66 44.3103 19.66C45.3323 19.66 46.2213 19.884 46.9773 20.332C47.7333 20.78 48.3213 21.431 48.7413 22.285C49.1613 23.139 49.3713 24.168 49.3713 25.372C49.3713 25.47 49.3573 25.568 49.3293 25.666C49.3153 25.764 49.2243 25.813 49.0563 25.813H41.0133C40.9573 25.813 40.9083 25.848 40.8663 25.918C40.8383 25.974 40.8243 26.044 40.8243 26.128ZM47.2503 24.658C47.4043 24.658 47.5023 24.644 47.5443 24.616C47.5863 24.574 47.6073 24.49 47.6073 24.364C47.6073 23.762 47.4743 23.202 47.2083 22.684C46.9563 22.152 46.5853 21.725 46.0953 21.403C45.6193 21.081 45.0383 20.92 44.3523 20.92C43.5963 20.92 42.9593 21.102 42.4413 21.466C41.9233 21.816 41.5313 22.278 41.2653 22.852C40.9993 23.426 40.8663 24.028 40.8663 24.658H47.2503ZM52.1444 31C51.9484 31 51.8504 30.909 51.8504 30.727V20.143C51.8504 19.961 51.9274 19.87 52.0814 19.87H53.3414C53.4954 19.87 53.5724 19.947 53.5724 20.101V21.319C53.5724 21.389 53.5864 21.431 53.6144 21.445C53.6424 21.459 53.6914 21.438 53.7614 21.382C54.2234 21.018 54.6504 20.71 55.0424 20.458C55.4484 20.192 55.8614 19.996 56.2814 19.87C56.7014 19.73 57.1494 19.66 57.6254 19.66C58.7174 19.66 59.5504 19.954 60.1244 20.542C60.7124 21.13 61.0064 21.893 61.0064 22.831V30.664C61.0064 30.888 60.9014 31 60.6914 31H59.5154C59.4174 31 59.3474 30.979 59.3054 30.937C59.2634 30.881 59.2424 30.811 59.2424 30.727V23.23C59.2424 22.544 59.0674 22.012 58.7174 21.634C58.3674 21.242 57.8144 21.046 57.0584 21.046C56.6524 21.046 56.2674 21.116 55.9034 21.256C55.5534 21.382 55.1964 21.571 54.8324 21.823C54.4684 22.061 54.0624 22.369 53.6144 22.747V30.685C53.6144 30.895 53.5094 31 53.2994 31H52.1444ZM67.8941 29.824C68.4961 29.824 69.0701 29.663 69.6161 29.341C70.1761 29.005 70.7291 28.557 71.2751 27.997V20.185C71.2751 19.975 71.3871 19.87 71.6111 19.87H72.7661C72.9621 19.87 73.0601 19.968 73.0601 20.164L73.0181 30.727C73.0181 30.909 72.9411 31 72.7871 31H71.5691C71.4151 31 71.3381 30.923 71.3381 30.769V29.53C71.3381 29.46 71.3241 29.418 71.2961 29.404C71.2681 29.39 71.2191 29.411 71.1491 29.467C70.3791 30.125 69.6931 30.58 69.0911 30.832C68.5031 31.084 67.9151 31.21 67.3271 31.21C66.6831 31.21 66.1091 31.077 65.6051 30.811C65.1011 30.545 64.7021 30.174 64.4081 29.698C64.1141 29.208 63.9671 28.641 63.9671 27.997V20.206C63.9671 19.982 64.0721 19.87 64.2821 19.87H65.4581C65.6401 19.87 65.7311 19.968 65.7311 20.164V27.535C65.7311 28.221 65.9201 28.774 66.2981 29.194C66.6901 29.614 67.2221 29.824 67.8941 29.824Z" fill="black"/>
<g filter="url(#filter0_d_5_2)">
<rect width="89.73" height="43" rx="8" fill="white" fill-opacity="0.01" shape-rendering="crispEdges"/>
</g>
<rect x="3" y="3" width="87.73" height="41" rx="7" stroke="black" stroke-width="2"/>
<defs>
<filter id="filter0_d_5_2" x="0" y="0" width="93.73" height="47" filterUnits="userSpaceOnUse" color-interpolation-filters="sRGB">
<feFlood flood-opacity="0" result="BackgroundImageFix"/>
<feColorMatrix in="SourceAlpha" type="matrix" values="0 0 0 0 0 0 0 0 0 0 0 0 0 0 0 0 0 0 127 0" result="hardAlpha"/>
<feOffset dx="4" dy="4"/>
<feComposite in2="hardAlpha" operator="out"/>
<feColorMatrix type="matrix" values="0 0 0 0 0 0 0 0 0 0 0 0 0 0 0 0 0 0 1 0"/>
<feBlend mode="normal" in2="BackgroundImageFix" result="effect1_dropShadow_5_2"/>
<feBlend mode="normal" in="SourceGraphic" in2="effect1_dropShadow_5_2" result="shape"/>
</filter>
</defs>
</svg>
